Coordinates																																									
version=1																																									
nRows=39																																									
nColumns=42																																									
inDegrees=yes																																									
																																									
"Units are S.I. units (second, meters, Newtons, ...)"																																									
Angles are in degrees.																																									
																																									
endheader																																									
time	pelvis_tx	pelvis_ty	pelvis_tz	pelvis_tilt	pelvis_list	pelvis_rotation	hip_flexion_r	hip_adduction_r	hip_rotation_r	knee_angle_r	ankle_angle_r	subtalar_angle_r	mtp_angle_r	hip_flexion_l	hip_adduction_l	hip_rotation_l	knee_angle_l	ankle_angle_l	subtalar_angle_l	mtp_angle_l	lumbar_extension	lumbar_bending	lumbar_rotation	ground_force_vx	ground_force_vy	ground_force_vz	ground_force_px	ground_force_py	ground_force_pz	ground_force_vx	ground_force_vy	ground_force_vz	ground_force_px	ground_force_py	ground_force_pz	ground_torque_x	ground_torque_y	ground_torque_z	ground_torque_x	ground_torque_y	ground_torque_z
0.99	-0.217478	0.7788	0.02782	-11.557004	6.01948	-3.34975	19.325848	3.966609	16.721884	-65.098902	34.703413	0	0	49.220713	10.155527	10.809932	-65.322563	24.658906	0	0	21.658229	-6.089718	10.535638	0	0	0	0	0	0	-29.862442	442.015259	31.097271	-0.15524	-0.007605	-0.122855	0	0	0	0.012354	5.470353	-0.004698
1	-0.210899	0.780393	0.026764	-11.924684	6.906644	-3.642262	19.608734	1.87024	14.704806	-64.380311	34.055409	0	0	49.027525	11.08244	10.662887	-64.835837	25.262841	0	0	22.197599	-6.935252	11.041767	0	0	0	0	0	0	-29.857288	466.071075	34.308792	-0.15268	-0.00697	-0.122727	0	0	0	0.014151	6.266325	-0.005381
1.01	-0.204368	0.782091	0.025944	-12.232097	7.707746	-4.084321	19.861929	-0.017328	12.912639	-63.795934	33.292678	0	0	48.747231	11.85929	10.518636	-64.36103	25.805423	0	0	22.668495	-7.680838	11.64848	0	0	0	0	0	0	-28.43882	486.484253	38.14492	-0.150659	-0.006385	-0.122735	0	0	0	0.01605	7.107077	-0.006103
1.02	-0.197916	0.783923	0.025473	-12.434661	8.36991	-4.728505	20.076801	-1.573471	11.47393	-63.411203	32.381678	0	0	48.32701	12.414617	10.383488	-63.906043	26.24472	0	0	23.022269	-8.268163	12.354565	0	0	0	0	0	0	-26.184635	502.781586	41.980473	-0.149075	-0.005932	-0.122843	0	0	0	0.017951	7.949126	-0.006826
1.03	-0.191558	0.78594	0.025308	-12.5082	8.88492	-5.559392	20.250355	-2.799353	10.379055	-63.240523	31.313846	0	0	47.739341	12.757683	10.26415	-63.456965	26.565172	0	0	23.232381	-8.692633	13.108699	0	0	0	0	0	0	-23.566372	514.734009	45.45657	-0.147761	-0.005636	-0.123075	0	0	0	0.019783	8.76011	-0.007523
1.04	-0.185289	0.788185	0.025322	-12.448981	9.270691	-6.520973	20.387287	-3.76566	9.541711	-63.266	30.097792	0	0	46.981268	12.942974	10.167517	-62.99159	26.770095	0	0	23.293713	-8.981362	13.839563	0	0	0	0	0	0	-20.844675	522.49646	48.45034	-0.146548	-0.005477	-0.123466	0	0	0	0.021504	9.522375	-0.008177
1.05	-0.179096	0.790682	0.02538	-12.268288	9.553445	-7.546102	20.497621	-4.560715	8.857096	-63.455169	28.752217	0	0	46.067075	13.035727	10.100644	-62.490166	26.873157	0	0	23.216993	-9.171076	14.48352	0	0	0	0	0	0	-18.155487	526.507507	50.91441	-0.145299	-0.00542	-0.12403	0	0	0	0.023091	10.224969	-0.008781
1.06	-0.172955	0.793424	0.025377	-11.988021	9.75561	-8.57483	20.594699	-5.25851	8.233829	-63.771017	27.30336	0	0	45.022158	13.089462	10.070731	-61.941647	26.893668	0	0	23.024293	-9.292995	14.997917	0	0	0	0	0	0	-15.572685	527.379028	52.824921	-0.143936	-0.005423	-0.124757	0	0	0	0.024525	10.860247	-0.009326
1.07	-0.166838	0.79637	0.025265	-11.640973	9.889572	-9.565001	20.698791	-5.901867	7.609356	-64.178363	25.785016	0	0	43.883269	13.131583	10.081492	-61.347052	26.855445	0	0	22.749007	-9.364124	15.365808	0	0	0	0	0	0	-13.092575	525.891235	54.23613	-0.142444	-0.00545	-0.125613	0	0	0	0.025807	11.427847	-0.009814
1.08	-0.160723	0.799448	0.025045	-11.266606	9.957346	-10.493724	20.835765	-6.501837	6.951597	-64.646702	24.239348	0	0	42.69442	13.162664	10.131393	-60.718066	26.784472	0	0	22.430515	-9.386679	15.591959	0	0	0	0	0	0	-10.642855	522.96814	55.294617	-0.140858	-0.005475	-0.12655	0	0	0	0.026953	11.93537	-0.01025
1.09	-0.154605	0.802583	0.024745	-10.900164	9.952983	-11.351827	21.027195	-7.047445	6.250858	-65.149759	22.716605	0	0	41.495295	13.166559	10.216449	-60.072053	26.704341	0	0	22.101579	-9.352607	15.692643	0	0	0	0	0	0	-8.147964	519.52063	56.180336	-0.139232	-0.005482	-0.127514	0	0	0	0.027989	12.393885	-0.010643
1.1	-0.148494	0.805711	0.024398	-10.568027	9.866209	-12.137976	21.286862	-7.51642	5.510452	-65.665063	21.273123	0	0	40.316571	13.120108	10.331941	-59.428349	26.63352	0	0	21.783294	-9.248267	15.688402	0	0	0	0	0	0	-5.589396	516.258301	57.041592	-0.137616	-0.005463	-0.128453	0	0	0	0.028935	12.812707	-0.011003
1.11	-0.142412	0.808775	0.024032	-10.290384	9.687433	-12.853846	21.624948	-7.885344	4.73868	-66.174349	19.968212	0	0	39.183156	13.001192	10.472867	-58.806098	26.584741	0	0	21.489216	-9.059068	15.600188	0	0	0	0	0	0	-3.021438	513.583557	57.954395	-0.136037	-0.005419	-0.129321	0	0	0	0.029796	13.194048	-0.01133
1.12	-0.136379	0.811722	0.023674	-10.083144	9.414537	-13.505593	22.052596	-8.136162	3.951229	-66.663835	18.85882	0	0	38.116731	12.793524	10.62902	-58.22086	26.564431	0	0	21.230798	-8.775832	15.451995	0	0	0	0	0	0	-0.551547	511.587036	58.918766	-0.134503	-0.005354	-0.130081	0	0	0	0.030561	13.533033	-0.011622
1.13	-0.130426	0.814507	0.023384	-9.957867	9.05969	-14.114706	22.58638	-8.255201	3.187637	-67.124948	17.991446	0	0	37.136869	12.483475	10.770682	-57.680688	26.573121	0	0	21.022096	-8.40106	15.28358	0	0	0	0	0	0	1.6991	510.128174	59.893375	-0.133005	-0.005278	-0.130712	0	0	0	0.031211	13.820727	-0.011869
1.14	-0.124585	0.817097	0.023277	-9.918889	8.650579	-14.724336	23.246791	-8.230187	2.52048	-67.554088	17.394231	0	0	36.258339	12.056399	10.841206	-57.184383	26.606642	0	0	20.878731	-7.951379	15.156528	0	0	0	0	0	0	3.629954	508.942169	60.806145	-0.131528	-0.005199	-0.131216	0	0	0	0.03172	14.045955	-0.012062
1.15	-0.118889	0.819472	0.023479	-9.961604	8.220816	-15.383584	24.04872	-8.052089	2.032811	-67.949297	17.072135	0	0	35.487057	11.501673	10.777005	-56.725903	26.658117	0	0	20.811026	-7.451507	15.133194	0	0	0	0	0	0	5.184319	507.750092	61.560734	-0.130043	-0.005121	-0.131626	0	0	0	0.03206	14.196733	-0.012192
1.16	-0.113358	0.821617	0.024051	-10.080185	7.791377	-16.115307	24.994951	-7.717805	1.770786	-68.305122	17.004687	0	0	34.824908	10.819708	10.546597	-56.305423	26.722779	0	0	20.821398	-6.918304	15.236673	0	0	0	0	0	0	6.350538	506.345062	62.069736	-0.128504	-0.005043	-0.131985	0	0	0	0.032213	14.264448	-0.01225
1.17	-0.107983	0.823513	0.024943	-10.274423	7.363054	-16.900429	26.077188	-7.233841	1.718957	-68.611094	17.147794	0	0	34.275522	10.025136	10.168223	-55.933915	26.800781	0	0	20.907074	-6.353746	15.432754	0	0	0	0	0	0	7.152084	504.634857	62.284855	-0.126857	-0.00496	-0.132307	0	0	0	0.032169	14.24511	-0.012233
1.18	-0.102735	0.825153	0.026038	-10.537669	6.931215	-17.69326	27.273217	-6.627702	1.821226	-68.856107	17.442457	0	0	33.832577	9.152221	9.690494	-55.621072	26.892386	0	0	21.056097	-5.760867	15.652335	0	0	0	0	0	0	7.63369	502.637329	62.205563	-0.125067	-0.004873	-0.13257	0	0	0	0.03193	14.139278	-0.012142
1.19	-0.097559	0.826567	0.027203	-10.840325	6.501416	-18.443142	28.540796	-5.955509	2.012727	-69.03279	17.826452	0	0	33.463392	8.257922	9.166944	-55.362184	26.992315	0	0	21.23975	-5.160269	15.823433	0	0	0	0	0	0	7.855941	500.458893	61.886307	-0.123128	-0.004786	-0.132744	0	0	0	0.031508	13.952355	-0.011982
1.2	-0.092395	0.827815	0.028322	-11.136337	6.090309	-19.106619	29.827484	-5.289415	2.238986	-69.139355	18.243268	0	0	33.117053	7.409903	8.641898	-55.139772	27.090759	0	0	21.4203	-4.5869	15.889802	0	0	0	0	0	0	7.893242	498.266449	61.436882	-0.12107	-0.004699	-0.132827	0	0	0	0.030927	13.694778	-0.01176
1.21	-0.087184	0.828946	0.029324	-11.38467	5.717889	-19.654068	31.091212	-4.693566	2.464701	-69.180254	18.647847	0	0	32.748968	6.664606	8.14249	-54.934628	27.178706	0	0	21.568527	-4.075853	15.817682	0	0	0	0	0	0	7.823576	496.229919	60.98571	-0.118937	-0.004608	-0.132853	0	0	0	0.030213	13.378601	-0.011489
1.22	-0.081885	0.829985	0.030179	-11.562083	5.396036	-20.068989	32.307758	-4.206859	2.66903	-69.163411	19.009391	0	0	32.334344	6.051067	7.680948	-54.73577	27.252561	0	0	21.670399	-3.648856	15.590142	0	0	0	0	0	0	7.705482	494.460754	60.628674	-0.116763	-0.004512	-0.132858	0	0	0	0.029388	13.013577	-0.011175
1.23	-0.076473	0.830933	0.030877	-11.664855	5.118886	-20.340786	33.465454	-3.838232	2.83273	-69.095034	19.311035	0	0	31.868433	5.567541	7.26697	-54.545262	27.315409	0	0	21.723425	-3.30604	15.193209	0	0	0	0	0	0	7.56361	492.995728	60.405312	-0.11456	-0.004408	-0.132868	0	0	0	0.028466	12.604994	-0.010825
1.24	-0.070936	0.83178	0.031419	-11.701877	4.866658	-20.462149	34.559214	-3.575154	2.936905	-68.978497	19.548519	0	0	31.359106	5.192039	6.91264	-54.374941	27.374193	0	0	21.730532	-3.031062	14.612203	0	0	0	0	0	0	7.390452	491.816254	60.307796	-0.112325	-0.004299	-0.132891	0	0	0	0.02745	12.155209	-0.010438
1.25	-0.065276	0.832514	0.031813	-11.682551	4.619671	-20.433752	35.586484	-3.39855	2.974209	-68.817045	19.72802	0	0	30.815583	4.898775	6.625459	-54.237467	27.435292	0	0	21.693821	-2.805741	13.8422	0	0	0	0	0	0	7.156194	490.876862	60.304188	-0.110045	-0.004186	-0.132916	0	0	0	0.026344	11.665544	-0.010018
1.26	-0.059507	0.833128	0.032079	-11.613487	4.363911	-20.264357	36.546413	-3.289466	2.950756	-68.613451	19.861261	0	0	30.245232	4.665106	6.407222	-54.142732	27.50254	0	0	21.613592	-2.615473	12.891193	0	0	0	0	0	0	6.826377	490.12616	60.355221	-0.107712	-0.004071	-0.132922	0	0	0	0.025154	11.138382	-0.009565
1.27	-0.053652	0.833607	0.032239	-11.504002	4.089283	-19.9667	37.442875	-3.228113	2.879179	-68.367257	19.959674	0	0	29.658782	4.470147	6.258019	-54.099644	27.577681	0	0	21.493021	-2.446862	11.773103	0	0	0	0	0	0	6.380103	489.534668	60.424313	-0.105328	-0.00396	-0.132886	0	0	0	0.023886	10.577228	-0.009083
1.28	-0.047736	0.833931	0.032326	-11.367805	3.792758	-19.556499	38.287288	-3.196991	2.776677	-68.074747	20.031251	0	0	29.0727	4.297127	6.174486	-54.115251	27.660927	0	0	21.341515	-2.29065	10.506008	0	0	0	0	0	0	5.819984	489.103943	60.481289	-0.102909	-0.003852	-0.132788	0	0	0	0.022553	9.986693	-0.008576
1.29	-0.041787	0.834074	0.032372	-11.219543	3.478282	-19.050428	39.09448	-3.184575	2.66078	-67.728661	20.079523	0	0	28.505147	4.136017	6.151174	-54.193644	27.752187	0	0	21.172104	-2.142524	9.112502	0	0	0	0	0	0	5.165824	488.866852	60.502285	-0.100477	-0.003744	-0.132615	0	0	0	0.021167	9.373246	-0.008049
1.3	-0.035822	0.834019	0.032405	-11.070194	3.152031	-18.46368	39.874607	-3.18491	2.544338	-67.317204	20.103907	0	0	27.969246	3.983288	6.185242	-54.335777	27.851746	0	0	20.995525	-1.999824	7.619604	0	0	0	0	0	0	4.443662	488.879608	60.465012	-0.098058	-0.003634	-0.132356	0	0	0	0.019747	8.744427	-0.007509
1.31	-0.029853	0.833756	0.032455	-10.924487	2.825364	-17.813316	40.632522	-3.197627	2.442406	-66.82722	20.101503	0	0	27.47001	3.844474	6.272845	-54.537432	27.958345	0	0	20.818773	-1.863847	6.066837	0	0	0	0	0	0	3.674685	489.198425	60.344959	-0.095684	-0.003515	-0.132011	0	0	0	0.01831	8.107994	-0.006963
1.32	-0.023888	0.833279	0.032563	-10.782819	2.517484	-17.12377	41.371815	-3.223381	2.381916	-66.247371	20.067917	0	0	27.00695	3.731977	6.401752	-54.788892	28.068632	0	0	20.647997	-1.741312	4.512391	0	0	0	0	0	0	2.869333	489.839233	60.10952	-0.093371	-0.003384	-0.131585	0	0	0	0.016873	7.471694	-0.006416
1.33	-0.017936	0.832587	0.032786	-10.644605	2.247537	-16.425491	42.093353	-3.255394	2.39788	-65.567152	19.996562	0	0	26.576871	3.655028	6.552234	-55.079007	28.179542	0	0	20.48921	-1.639162	3.018984	0	0	0	0	0	0	2.02694	490.751678	59.720394	-0.091116	-0.00324	-0.131087	0	0	0	0.015452	6.842206	-0.005876
1.34	-0.012	0.831684	0.033179	-10.51062	2.02437	-15.746711	42.791408	-3.277403	2.518806	-64.775998	19.878799	0	0	26.175488	3.612876	6.70698	-55.399613	28.289897	0	0	20.347349	-1.558007	1.632462	0	0	0	0	0	0	1.141697	491.820984	59.148338	-0.0889	-0.003085	-0.130524	0	0	0	0.014059	6.225707	-0.005346
1.35	-0.006074	0.830577	0.033784	-10.383543	1.846407	-15.109082	43.454685	-3.267965	2.762041	-63.866913	19.705972	0	0	25.798707	3.597626	6.856282	-55.746402	28.399833	0	0	20.226403	-1.491686	0.379723	0	0	0	0	0	0	0.208836	492.901245	58.38591	-0.086703	-0.002925	-0.129903	0	0	0	0.012711	5.628836	-0.004834
1.36	-0.000149	0.829273	0.034635	-10.265403	1.712441	-14.531388	44.070887	-3.207068	3.145186	-62.843539	19.473465	0	0	25.441948	3.603937	6.991698	-56.115851	28.50928	0	0	20.129828	-1.435877	-0.719603	0	0	0	0	0	0	-0.770226	493.863129	57.457333	-0.084512	-0.002764	-0.129231	0	0	0	0.011426	5.05942	-0.004345
1.37	0.005786	0.827772	0.035763	-10.155791	1.629485	-14.031145	44.629433	-3.081535	3.693949	-61.724515	19.18516	0	0	25.099702	3.63614	7.101974	-56.502856	28.616858	0	0	20.061036	-1.394644	-1.648438	0	0	0	0	0	0	-1.773695	494.635742	56.417435	-0.082327	-0.0026	-0.128511	0	0	0	0.010222	4.526381	-0.003887
